<svg xmlns="http://www.w3.org/2000/svg" viewBox="0 0 406 78" role="img" aria-label="Longevos Espaço Fitness">
  <path id="body" fill="#42B385" d="M1.68 71.83C1.54 71.47 2.51 70.42 6.7 66.38C9.05 64.1 13.02 59.17 14.35 56.86C14.69 56.27 15.3 55.29 15.72 54.68C16.13 54.06 16.68 53.17 16.94 52.69C17.2 52.21 17.91 50.93 18.52 49.86C19.13 48.79 19.84 47.41 20.11 46.8C21.05 44.65 22.23 41.8 22.63 40.69C22.86 40.07 23.28 38.94 23.57 38.19C23.86 37.43 24.2 36.45 24.31 36C24.42 35.55 24.65 34.74 24.82 34.19C25.6 31.59 26.13 28.25 26.3 24.78C26.46 21.5 26.46 21.5 26.83 20.91C28.04 18.95 31.25 19.1 33.51 21.22C36.38 23.92 36.53 27.99 34.04 35.91C33.36 38.1 30.73 43.56 29.09 46.2C27.05 49.49 24.44 53.29 23.33 54.61C22.84 55.19 21.93 56.29 21.31 57.06C19.65 59.12 18.64 60.34 17.92 61.15C16.14 63.16 16.59 63.51 19.56 62.43C22.74 61.27 25.28 60.75 30.25 60.24C32.81 59.98 38.82 60.61 41.69 61.44C45.69 62.6 48.91 65.18 50.01 68.11C50.69 69.92 50.08 71.75 48.79 71.75C48.17 71.75 47.69 71.51 46.46 70.57C41.33 66.65 34.5 64.6 26.56 64.61C20.65 64.61 16.66 65.59 13.03 67.95C11.31 69.07 11.3 69.07 10.55 68.81C9.69 68.52 9.35 68.64 6.99 70.05C4.63 71.46 1.89 72.38 1.68 71.83Z"/>
  <path id="head" fill="#202328" d="M34.81 19.07C32.32 18.52 29.91 16.07 28.62 12.78C27.39 9.63 27.43 7.62 28.81 4.8C30.41 1.52 33.12 0.34 36.58 1.43C38.28 1.97 39.43 2.9 40.99 5C42.21 6.63 42.28 6.78 42.81 8.63C43.84 12.2 42.98 15.51 40.39 17.9C39.13 19.07 36.93 19.53 34.81 19.07Z"/>
  <path id="L" fill="#202328" d="M69.04 60.36C67.83 60.25 67.33 60.06 66.89 59.56C66.15 58.72 66.27 57.87 67.56 54.94C67.92 54.11 68.34 53.1 68.5 52.69C68.66 52.28 69.27 50.9 69.85 49.62C71.69 45.59 72.13 44.59 72.65 43.31C72.92 42.62 73.49 41.33 73.9 40.44C74.31 39.54 75.06 37.86 75.56 36.69C76.06 35.52 76.81 33.8 77.23 32.88C77.64 31.95 78.52 29.9 79.19 28.33C82.7 20.04 83.22 19.4 86.52 19.28C89.04 19.18 90 19.5 90 20.42C90 20.74 88.68 23.93 87.59 26.25C87.28 26.9 86.78 28.08 86.46 28.88C86.15 29.67 85.52 31.1 85.06 32.06C84.6 33.02 84.09 34.15 83.93 34.57C83.77 34.99 83.21 36.31 82.68 37.51C82.15 38.71 81.14 41.04 80.44 42.69C79.73 44.34 78.94 46.14 78.69 46.69C76.65 51.11 76.4 51.96 76.92 52.59C77.51 53.28 77.61 53.28 88.11 53.3C96.57 53.31 97.74 53.34 98.12 53.51C99.09 53.95 99.14 54.47 98.4 56.27C97.28 58.98 96.04 59.99 93.5 60.27C92.07 60.42 70.64 60.5 69.04 60.36Z"/>
  <path id="O1" fill="#202328" d="M116 61.04C111.33 60.31 109.3 59.45 107.24 57.34C104.83 54.87 104.26 53.91 103.73 51.44C103.1 48.47 103.43 45.02 104.7 41.36C105.57 38.86 106.38 37.25 108.49 33.88C109.14 32.83 112.69 28.74 113.82 27.74C118.14 23.9 122.68 21.34 128.06 19.7C133.42 18.07 140.37 18.34 143.97 20.33C148.49 22.83 151.1 27.59 150.61 32.43C149.84 40.04 145.97 47.02 139.25 52.93C136.6 55.26 131.49 58.19 127.61 59.62C125.26 60.47 125.03 60.52 120.06 61.01C118.95 61.12 116.61 61.14 116 61.04ZM124.08 53.55C126.78 53.16 130.02 51.86 132.73 50.08C134.25 49.09 137.45 45.99 138.9 44.12C140.11 42.56 141.69 39.26 142.39 36.84C142.72 35.68 142.86 32.75 142.63 31.6C142.13 29.05 139.67 26.82 136.6 26.13C134.2 25.6 130.14 25.85 127.25 26.71C122.14 28.24 116.17 33.12 113.95 37.6C111.62 42.27 111.07 44.32 111.37 47.19C111.62 49.56 113.13 51.74 115.26 52.82C117.15 53.77 120.55 54.06 124.08 53.55Z"/>
  <path id="N" fill="#202328" d="M148.5 60.37C146.56 60.25 145.88 59.8 146.05 58.73C146.17 58 147.73 54.31 150.53 48.12C151.39 46.23 152.13 44.55 152.19 44.38C152.24 44.2 152.56 43.44 152.9 42.69C153.6 41.16 156 35.54 156 35.45C156 35.42 156.47 34.36 157.05 33.09C157.63 31.83 158.31 30.3 158.56 29.69C158.81 29.09 159.18 28.26 159.39 27.85C159.6 27.43 160.09 26.3 160.49 25.32C162.52 20.35 163.87 19.16 167.36 19.27C169.85 19.35 169.53 18.84 172.83 28C173.48 29.82 174.32 32.13 174.69 33.12C175.05 34.12 175.56 35.58 175.81 36.38C176.41 38.26 177.14 40.26 177.8 41.81C178.1 42.5 178.46 43.48 178.62 44C179.36 46.45 180.14 47.21 181.05 46.35C181.52 45.91 182.33 44.2 184.13 39.88C184.62 38.67 185.31 37.14 185.64 36.48C185.98 35.82 186.25 35.23 186.25 35.18C186.25 35.13 186.93 33.48 187.76 31.51C192.39 20.53 193.36 19.23 196.9 19.26C199.62 19.27 200.22 19.72 199.67 21.34C199.47 21.95 197.02 27.57 196.13 29.5C195.18 31.52 193.97 34.32 192.88 37C192.27 38.48 191.49 40.29 191.13 41.03C190.45 42.43 187.86 48.38 186.04 52.68C183.93 57.69 182.06 59.72 179.16 60.14C177.02 60.45 176.14 60.02 175.49 58.32C175.28 57.77 174.87 56.72 174.57 56C174.27 55.28 173.59 53.42 173.06 51.88C172.53 50.33 171.74 48.19 171.31 47.12C170.88 46.06 170.02 43.73 169.4 41.94C166.76 34.3 166.07 32.75 165.31 32.75C164.61 32.75 164.48 33 162.28 38.31C160.55 42.49 158.54 47.05 157.62 48.89C157.35 49.41 156.78 50.71 156.33 51.76C152.54 60.81 152.71 60.62 148.5 60.37Z"/>
  <path id="G" fill="#202328" d="M210 61.04C204.05 60.59 201.49 59.68 198.78 57.08C196.98 55.35 196.28 54.25 195.6 52.11C194.79 49.51 195.14 44.65 196.39 41.19C197.34 38.56 199.68 34.37 201.26 32.5C201.63 32.05 202.26 31.29 202.65 30.81C205.47 27.34 210.88 23.22 214.74 21.61C220.75 19.1 222.45 18.71 227.44 18.73C231.13 18.74 232.68 18.99 234.51 19.86C237.84 21.45 239.96 23.61 240.88 26.37C241.62 28.59 241.01 29.65 238.58 30.4C236.3 31.1 235.19 30.77 233.12 28.8C230.91 26.69 230.17 26.33 227.06 25.87C222.85 25.24 215.68 27.34 212.23 30.2C211.91 30.47 211.1 31.14 210.42 31.7C207.65 33.98 205.93 36.42 204.32 40.35C201.86 46.36 202.93 50.88 207.31 53C208.88 53.76 209.96 53.93 213.19 53.93C217.14 53.94 219.22 53.41 223.37 51.37C226.08 50.04 226.34 49.8 227.32 47.83C228.85 44.77 228.45 44.29 224.32 44.17C221.93 44.1 221.4 43.99 220.65 43.42C219.03 42.18 219.44 38.92 221.34 37.98C221.93 37.69 222.01 37.69 225.81 37.67C227.94 37.67 229.81 37.62 229.95 37.58C230.46 37.42 234.05 37.73 234.77 38C235.9 38.42 236.81 39.61 236.96 40.85C237.05 41.64 236.85 42.19 234.93 46.5C234.06 48.46 233.24 50.34 233.1 50.69C232.66 51.8 231.53 53.68 230.98 54.21C229.67 55.46 223.3 58.67 220.23 59.61C216.64 60.72 212.8 61.25 210 61.04Z"/>
  <path id="E" fill="#202328" d="M238.75 60.37C235 60.19 234.94 59.9 237.58 54.02C238.77 51.37 239.52 49.65 240.25 47.88C240.61 47.02 241.4 45.26 242.02 43.98C242.63 42.69 243.57 40.47 244.11 39.04C244.65 37.61 245.61 35.4 246.25 34.12C246.89 32.85 247.66 31.17 247.97 30.38C248.28 29.58 248.68 28.63 248.87 28.25C249.06 27.87 249.57 26.69 250 25.62C251.71 21.37 252.76 19.67 253.88 19.37C254.62 19.18 282.49 19.17 283.22 19.37C283.83 19.53 284.62 20.17 284.62 20.49C284.62 20.7 284 21.88 283.12 23.35C282.66 24.13 281.79 24.85 280.6 25.45C278.84 26.34 279.4 26.3 268.25 26.37C258.19 26.44 258.19 26.44 257.66 26.74C256.94 27.15 256.38 28 255.62 29.88C255.27 30.73 254.69 32.05 254.34 32.8C253.55 34.51 253.46 35.16 253.93 35.72C254.37 36.24 254.37 36.24 259.12 36.3C264.61 36.37 265.11 36.5 265.88 38.05C266.79 39.91 266.26 42.37 264.82 43.01C264.05 43.35 263.2 43.39 256.56 43.42C250.87 43.44 250.67 43.45 250.19 43.7C249.48 44.07 248.86 44.95 248.28 46.42C248 47.12 247.43 48.52 247.01 49.53C246.03 51.9 246.03 52.49 246.99 52.96C247.4 53.17 248.12 53.19 256.75 53.26C265.23 53.32 266.12 53.35 266.69 53.55C269 54.37 269.47 56.09 268.12 58.75C267.72 59.56 267.37 59.91 266.69 60.21C266.22 60.41 265.32 60.43 253.44 60.44C246.43 60.45 239.82 60.42 238.75 60.37Z"/>
  <path id="V" fill="#202328" d="M286.69 60.26C286.22 60.05 285.88 59.55 285.75 58.87C285.65 58.39 285.64 52.78 285.7 40.44C285.77 24.34 285.76 22.61 285.58 21.84C285.24 20.41 285.39 20.07 286.62 19.51C287.28 19.21 289.83 19.14 290.82 19.39C291.5 19.56 292.51 20.43 292.91 21.17C293.24 21.79 293.26 23.96 293.07 39.25C292.95 49.18 292.96 49.27 293.58 49.51C294.34 49.8 295.7 48.44 300.77 42.31C301.22 41.76 301.72 41.2 301.88 41.06C302.03 40.92 302.84 39.97 303.67 38.94C304.49 37.91 305.63 36.56 306.2 35.94C306.76 35.32 307.64 34.3 308.14 33.67C309.73 31.71 311.51 29.61 312.57 28.44C313.13 27.82 314.08 26.72 314.68 26C315.99 24.42 317.91 22.23 318.93 21.15C320.35 19.65 321.86 19.19 325.06 19.27C328.14 19.35 328.3 19.8 326.17 22.34C325.61 23.01 324.57 24.27 323.86 25.12C323.15 25.98 321.84 27.48 320.94 28.44C320.04 29.4 319 30.55 318.63 31C318.25 31.45 317.51 32.3 316.98 32.89C315.77 34.23 313.78 36.57 312.53 38.12C312 38.78 311.01 39.95 310.32 40.74C309.63 41.52 308.78 42.51 308.44 42.92C308.1 43.34 307.06 44.53 306.12 45.56C305.19 46.59 304.06 47.86 303.62 48.38C303.17 48.9 302.21 50 301.47 50.83C300.73 51.66 299.89 52.64 299.6 53.01C299.31 53.38 298.56 54.25 297.94 54.94C297.31 55.62 296.45 56.61 296.03 57.13C294.7 58.76 293.21 59.74 291.5 60.12C290.66 60.31 287.03 60.42 286.69 60.26Z"/>
  <path id="O2" fill="#202328" d="M329.56 60.99C325.56 60.64 322.51 59.2 319.89 56.43C317.43 53.84 316.43 49.37 317.31 44.9C318.52 38.71 322.14 32.58 327.51 27.61C330.15 25.17 334.8 22.16 337.25 21.31C337.7 21.15 339.06 20.65 340.27 20.2C344.13 18.78 347.56 18.37 351.85 18.82C355.2 19.17 356.6 19.65 358.83 21.2C361.46 23.02 362.7 24.64 363.71 27.57C364.51 29.88 364.4 33.47 363.41 36.87C361.94 41.97 359.65 45.87 355.54 50.31C353.54 52.47 352.62 53.24 349.75 55.13C344.57 58.56 342.37 59.5 336.81 60.63C334.2 61.16 332.47 61.25 329.56 60.99ZM336.75 53.63C341.16 53.05 344.61 51.54 348.27 48.6C351.45 46.04 354.97 40.66 355.94 36.87C357.66 30.13 354.03 25.82 346.62 25.82C341.25 25.83 335.43 28.4 331.26 32.62C328.72 35.19 327.46 37.23 325.85 41.38C324.58 44.64 324.53 47.62 325.71 49.75C327.55 53.05 331.26 54.36 336.75 53.63Z"/>
  <path id="S" fill="#202328" d="M372.82 60.98C368.03 60.7 364.16 59.54 361.27 57.53C358.21 55.41 358.19 55.17 360.73 52.62C363.74 49.59 364.07 49.52 366.67 51.31C369.63 53.35 371.48 53.83 376.94 53.96C381.29 54.07 383.91 53.61 386.73 52.24C389.3 50.99 391.14 48.41 390.64 46.74C390.09 44.92 387.34 43.97 379.27 42.82C377.04 42.5 374.86 41.88 372.56 40.93C371.06 40.3 369.75 39.04 369.03 37.55C368.11 35.62 368.42 33.12 369.95 30.09C371.03 27.94 371.3 27.57 372.87 25.99C375.46 23.4 377.43 22.12 381.35 20.51C384.21 19.34 385.02 19.14 387.93 18.86C395.12 18.16 399.19 19.17 402.67 22.49C404.45 24.19 405.54 26.8 404.9 27.83C404.45 28.53 400.56 30.25 399.4 30.25C398.84 30.25 398.3 29.82 397.63 28.82C396.1 26.56 393.58 25.56 389.5 25.59C384.59 25.64 380.64 26.85 378.56 28.94C375.99 31.54 375.97 33.28 378.51 34.85C379.45 35.42 381.99 35.97 386.12 36.5C389.16 36.88 392.81 37.77 394.15 38.45C398.95 40.88 400.09 43.94 398.01 48.74C397.08 50.88 395.53 53.14 394.16 54.35C392.13 56.14 391.62 56.53 390.13 57.43C386.97 59.31 384.51 60.09 378.81 61.01C378.03 61.13 375.11 61.12 372.82 60.98Z"/>
  <path id="tagline" fill="#42B385" stroke="#42B385" stroke-width="0.55" stroke-linejoin="round" d="M244 73.2V63.1H252.14V64.15H245.04V67.52H251.85V68.57H245.04V72.15H252.29V73.2ZM264.39 70.28Q264.39 69.7 264.32 69.36Q264.24 69.02 263.98 68.86Q263.71 68.7 263.15 68.65Q262.6 68.6 261.63 68.58L258.63 68.53Q257.52 68.51 256.84 68.37Q256.17 68.22 255.82 67.91Q255.48 67.6 255.36 67.07Q255.24 66.55 255.24 65.76Q255.24 64.9 255.4 64.34Q255.56 63.78 255.98 63.46Q256.4 63.15 257.17 63.02Q257.93 62.89 259.15 62.89H261.46Q262.56 62.89 263.29 62.98Q264.03 63.06 264.46 63.37Q264.89 63.68 265.08 64.33Q265.27 64.98 265.27 66.12H264.23Q264.23 65.24 264.09 64.79Q263.95 64.34 263.64 64.17Q263.32 64.01 262.79 63.99Q262.25 63.98 261.46 63.98H259.2Q258.24 63.98 257.65 64.03Q257.07 64.07 256.78 64.24Q256.48 64.4 256.38 64.76Q256.28 65.13 256.28 65.76Q256.28 66.29 256.35 66.61Q256.42 66.93 256.67 67.1Q256.91 67.27 257.43 67.33Q257.94 67.39 258.82 67.41L262.04 67.46Q263.18 67.48 263.85 67.62Q264.53 67.76 264.87 68.08Q265.21 68.39 265.32 68.93Q265.43 69.47 265.43 70.28Q265.43 71.17 265.29 71.77Q265.15 72.37 264.76 72.73Q264.36 73.09 263.62 73.25Q262.87 73.41 261.66 73.41H259.13Q258.02 73.41 257.27 73.29Q256.52 73.17 256.08 72.82Q255.63 72.46 255.44 71.75Q255.24 71.04 255.24 69.85H256.28Q256.28 70.78 256.4 71.29Q256.53 71.79 256.84 72.01Q257.15 72.23 257.71 72.28Q258.27 72.32 259.13 72.32H261.6Q262.57 72.32 263.13 72.24Q263.69 72.17 263.96 71.95Q264.23 71.74 264.31 71.34Q264.39 70.94 264.39 70.28ZM269.04 73.2V63.1H274.59Q275.8 63.1 276.54 63.24Q277.29 63.39 277.67 63.73Q278.05 64.07 278.19 64.64Q278.32 65.22 278.32 66.07V66.34Q278.32 67.15 278.19 67.72Q278.05 68.29 277.65 68.64Q277.26 68.99 276.52 69.15Q275.77 69.31 274.56 69.31H270.07V73.2ZM277.29 66.07Q277.29 65.45 277.19 65.07Q277.09 64.7 276.8 64.51Q276.51 64.32 275.93 64.25Q275.35 64.19 274.39 64.19H270.07V68.22H274.39Q275.35 68.22 275.93 68.14Q276.51 68.06 276.8 67.86Q277.09 67.66 277.19 67.29Q277.29 66.92 277.29 66.34ZM280.96 73.2 285.8 63.1H287.18L292.02 73.2H290.81L289.77 70.89H283.21L282.17 73.2ZM283.73 69.83H289.26L286.49 63.94ZM294.94 68.28V68.02Q294.94 66.68 295.05 65.77Q295.16 64.86 295.42 64.28Q295.69 63.71 296.14 63.41Q296.6 63.11 297.29 63Q297.98 62.89 298.95 62.89H301.13Q302.24 62.89 303.01 63.02Q303.77 63.15 304.24 63.52Q304.71 63.9 304.92 64.64Q305.13 65.37 305.13 66.58H304.09Q304.09 65.62 303.95 65.1Q303.81 64.57 303.48 64.33Q303.14 64.09 302.57 64.04Q302 63.98 301.13 63.98H298.95Q298.18 63.98 297.65 64.04Q297.12 64.09 296.79 64.29Q296.46 64.49 296.28 64.93Q296.11 65.36 296.04 66.11Q295.98 66.86 295.98 68.02V68.28Q295.98 69.4 296.04 70.14Q296.11 70.87 296.28 71.31Q296.46 71.75 296.79 71.97Q297.12 72.19 297.65 72.25Q298.18 72.32 298.95 72.32H301.13Q302 72.32 302.57 72.27Q303.14 72.23 303.48 72Q303.81 71.78 303.95 71.26Q304.09 70.73 304.09 69.79H305.13Q305.13 71 304.92 71.72Q304.71 72.44 304.24 72.81Q303.77 73.17 303.01 73.29Q302.24 73.41 301.13 73.41H298.95Q297.74 73.41 296.96 73.21Q296.17 73.01 295.73 72.47Q295.29 71.93 295.12 70.92Q294.94 69.91 294.94 68.28ZM299.45 76.78V75.73Q299.7 75.73 299.94 75.69Q300.18 75.66 300.33 75.54Q300.49 75.42 300.49 75.17Q300.49 74.86 300.2 74.77Q299.92 74.67 299.45 74.67V72.78H300.14V74.04Q300.83 74.04 301.18 74.33Q301.53 74.61 301.53 75.29Q301.53 75.86 301.26 76.19Q301 76.51 300.53 76.65Q300.07 76.78 299.45 76.78ZM312.42 73.41Q311.21 73.41 310.43 73.21Q309.64 73.01 309.2 72.47Q308.76 71.93 308.59 70.92Q308.41 69.91 308.41 68.28V68.02Q308.41 66.68 308.52 65.77Q308.63 64.86 308.89 64.28Q309.16 63.71 309.61 63.41Q310.07 63.11 310.76 63Q311.45 62.89 312.42 62.89H314.6Q315.57 62.89 316.26 63Q316.95 63.11 317.41 63.41Q317.87 63.71 318.13 64.28Q318.4 64.86 318.5 65.77Q318.61 66.68 318.61 68.02V68.28Q318.61 69.91 318.44 70.92Q318.26 71.93 317.82 72.47Q317.38 73.01 316.6 73.21Q315.81 73.41 314.6 73.41ZM312.42 72.32H314.6Q315.37 72.32 315.9 72.25Q316.43 72.19 316.76 71.97Q317.09 71.75 317.27 71.31Q317.45 70.87 317.51 70.14Q317.57 69.4 317.57 68.28V68.02Q317.57 66.86 317.51 66.11Q317.45 65.36 317.27 64.93Q317.09 64.49 316.76 64.29Q316.43 64.09 315.9 64.04Q315.37 63.98 314.6 63.98H312.42Q311.65 63.98 311.12 64.04Q310.59 64.09 310.26 64.29Q309.93 64.49 309.75 64.93Q309.58 65.36 309.51 66.11Q309.45 66.86 309.45 68.02V68.28Q309.45 69.4 309.51 70.14Q309.58 70.87 309.75 71.31Q309.93 71.75 310.26 71.97Q310.59 72.19 311.12 72.25Q311.65 72.32 312.42 72.32ZM327.25 73.2V63.1H335.07V64.15H328.29V67.52H334.77V68.57H328.29V73.2ZM338.47 73.2V63.1H339.51V73.2ZM347.09 73.2V64.15H342.94V63.1H352.27V64.15H348.12V73.2ZM355.7 73.2V63.1H356.78L365.11 71.64H365.12V63.1H366.16V73.2H365.08L356.75 64.59H356.74V73.2ZM370.12 73.2V63.1H378.26V64.15H371.16V67.52H377.97V68.57H371.16V72.15H378.41V73.2ZM390.51 70.28Q390.51 69.7 390.44 69.36Q390.36 69.02 390.09 68.86Q389.83 68.7 389.27 68.65Q388.72 68.6 387.75 68.58L384.75 68.53Q383.64 68.51 382.96 68.37Q382.29 68.22 381.94 67.91Q381.6 67.6 381.48 67.07Q381.36 66.55 381.36 65.76Q381.36 64.9 381.52 64.34Q381.68 63.78 382.1 63.46Q382.52 63.15 383.29 63.02Q384.05 62.89 385.27 62.89H387.58Q388.68 62.89 389.41 62.98Q390.15 63.06 390.58 63.37Q391.01 63.68 391.2 64.33Q391.39 64.98 391.39 66.12H390.35Q390.35 65.24 390.21 64.79Q390.07 64.34 389.76 64.17Q389.44 64.01 388.91 63.99Q388.37 63.98 387.58 63.98H385.32Q384.36 63.98 383.77 64.03Q383.19 64.07 382.9 64.24Q382.6 64.4 382.5 64.76Q382.4 65.13 382.4 65.76Q382.4 66.29 382.47 66.61Q382.54 66.93 382.79 67.1Q383.03 67.27 383.55 67.33Q384.06 67.39 384.94 67.41L388.16 67.46Q389.3 67.48 389.97 67.62Q390.65 67.76 390.99 68.08Q391.33 68.39 391.44 68.93Q391.55 69.47 391.55 70.28Q391.55 71.17 391.41 71.77Q391.27 72.37 390.88 72.73Q390.48 73.09 389.74 73.25Q388.99 73.41 387.78 73.41H385.25Q384.14 73.41 383.39 73.29Q382.64 73.17 382.2 72.82Q381.75 72.46 381.56 71.75Q381.36 71.04 381.36 69.85H382.4Q382.4 70.78 382.52 71.29Q382.65 71.79 382.96 72.01Q383.27 72.23 383.83 72.28Q384.39 72.32 385.25 72.32H387.72Q388.69 72.32 389.25 72.24Q389.81 72.17 390.08 71.95Q390.35 71.74 390.43 71.34Q390.51 70.94 390.51 70.28ZM403.96 70.28Q403.96 69.7 403.89 69.36Q403.81 69.02 403.55 68.86Q403.28 68.7 402.73 68.65Q402.17 68.6 401.2 68.58L398.2 68.53Q397.09 68.51 396.41 68.37Q395.74 68.22 395.39 67.91Q395.05 67.6 394.93 67.07Q394.82 66.55 394.82 65.76Q394.82 64.9 394.98 64.34Q395.13 63.78 395.55 63.46Q395.97 63.15 396.74 63.02Q397.51 62.89 398.72 62.89H401.03Q402.13 62.89 402.87 62.98Q403.6 63.06 404.03 63.37Q404.47 63.68 404.65 64.33Q404.84 64.98 404.84 66.12H403.8Q403.8 65.24 403.66 64.79Q403.53 64.34 403.21 64.17Q402.89 64.01 402.36 63.99Q401.82 63.98 401.03 63.98H398.77Q397.81 63.98 397.23 64.03Q396.65 64.07 396.35 64.24Q396.05 64.4 395.95 64.76Q395.85 65.13 395.85 65.76Q395.85 66.29 395.92 66.61Q395.99 66.93 396.24 67.1Q396.48 67.27 397 67.33Q397.51 67.39 398.4 67.41L401.61 67.46Q402.75 67.48 403.43 67.62Q404.1 67.76 404.44 68.08Q404.78 68.39 404.89 68.93Q405 69.47 405 70.28Q405 71.17 404.86 71.77Q404.72 72.37 404.33 72.73Q403.94 73.09 403.19 73.25Q402.45 73.41 401.23 73.41H398.7Q397.6 73.41 396.85 73.29Q396.1 73.17 395.65 72.82Q395.2 72.46 395.01 71.75Q394.82 71.04 394.82 69.85H395.85Q395.85 70.78 395.98 71.29Q396.1 71.79 396.41 72.01Q396.72 72.23 397.28 72.28Q397.84 72.32 398.7 72.32H401.18Q402.14 72.32 402.71 72.24Q403.27 72.17 403.54 71.95Q403.81 71.74 403.88 71.34Q403.96 70.94 403.96 70.28Z"/>
</svg>
